<svg xmlns="http://www.w3.org/2000/svg" xmlns:xlink="http://www.w3.org/1999/xlink" width="500" zoomAndPan="magnify" viewBox="0 0 375 374.999991" height="500" preserveAspectRatio="xMidYMid meet" version="1.0"><defs><clipPath id="c4bd13571a"><path d="M 187.5 0 C 83.945312 0 0 83.945312 0 187.5 C 0 291.054688 83.945312 375 187.5 375 C 291.054688 375 375 291.054688 375 187.5 C 375 83.945312 291.054688 0 187.5 0 Z M 187.5 0 " clip-rule="nonzero"/></clipPath><clipPath id="55e86afa05"><path d="M 234 72.152344 L 271 72.152344 L 271 102 L 234 102 Z M 234 72.152344 " clip-rule="nonzero"/></clipPath><clipPath id="40e07cb115"><path d="M 190 72.152344 L 228 72.152344 L 228 102 L 190 102 Z M 190 72.152344 " clip-rule="nonzero"/></clipPath><clipPath id="b18c13c535"><path d="M 53.371094 269 L 321.871094 269 L 321.871094 296 L 53.371094 296 Z M 53.371094 269 " clip-rule="nonzero"/></clipPath></defs><g clip-path="url(#c4bd13571a)"><rect x="-37.5" width="450" fill="#222222" y="-37.499999" height="449.999989" fill-opacity="1"/></g><path fill="#ffffff" d="M 234.253906 108.652344 L 270.871094 108.652344 L 270.871094 137.851562 L 234.253906 137.851562 Z M 234.253906 108.652344 " fill-opacity="1" fill-rule="nonzero"/><path fill="#ffffff" d="M 190.855469 108.652344 L 227.480469 108.652344 L 227.480469 137.851562 L 190.855469 137.851562 Z M 190.855469 108.652344 " fill-opacity="1" fill-rule="nonzero"/><path fill="#ffffff" d="M 227.480469 144.625 L 227.480469 155.851562 L 202.992188 144.625 Z M 227.480469 144.625 " fill-opacity="1" fill-rule="nonzero"/><path fill="#ffffff" d="M 234.253906 144.625 L 270.871094 144.625 L 270.871094 175.746094 L 234.253906 158.957031 Z M 234.253906 144.625 " fill-opacity="1" fill-rule="nonzero"/><g clip-path="url(#55e86afa05)"><path fill="#ffffff" d="M 234.253906 72.675781 L 270.871094 72.675781 L 270.871094 101.878906 L 234.253906 101.878906 Z M 234.253906 72.675781 " fill-opacity="1" fill-rule="nonzero"/></g><g clip-path="url(#40e07cb115)"><path fill="#ffffff" d="M 190.855469 72.675781 L 227.480469 72.675781 L 227.480469 101.878906 L 190.855469 101.878906 Z M 190.855469 72.675781 " fill-opacity="1" fill-rule="nonzero"/></g><path fill="#ffffff" d="M 147.464844 108.652344 L 184.082031 108.652344 L 184.082031 137.851562 L 147.464844 137.851562 Z M 147.464844 108.652344 " fill-opacity="1" fill-rule="nonzero"/><path fill="#ffffff" d="M 171.957031 144.625 L 147.464844 155.855469 L 147.464844 144.625 Z M 171.957031 144.625 " fill-opacity="1" fill-rule="nonzero"/><path fill="#ffffff" d="M 104.070312 108.652344 L 140.6875 108.652344 L 140.6875 137.851562 L 104.070312 137.851562 Z M 104.070312 108.652344 " fill-opacity="1" fill-rule="nonzero"/><path fill="#ffffff" d="M 104.070312 144.625 L 140.691406 144.625 L 140.691406 158.960938 L 104.070312 175.746094 Z M 104.070312 144.625 " fill-opacity="1" fill-rule="nonzero"/><path fill="#ffffff" d="M 99.632812 281.871094 C 99.96875 281.878906 100.304688 281.894531 100.636719 281.894531 C 112.890625 281.894531 124.625 277.300781 133.679688 268.96875 C 134.671875 268.054688 135.621094 267.101562 136.527344 266.109375 C 138.421875 264.050781 141.144531 262.875 144.011719 262.875 C 146.867188 262.875 149.585938 264.050781 151.480469 266.097656 C 160.710938 276.125 173.835938 281.867188 187.496094 281.867188 C 199.808594 281.867188 211.558594 277.289062 220.597656 268.96875 C 221.585938 268.054688 222.535156 267.101562 223.445312 266.109375 C 225.335938 264.050781 228.0625 262.875 230.925781 262.875 C 233.78125 262.875 236.503906 264.050781 238.394531 266.097656 C 247.625 276.125 260.746094 281.867188 274.410156 281.867188 C 274.722656 281.867188 275.03125 281.832031 275.339844 281.824219 C 289.257812 260.898438 298.597656 236.949219 302.363281 212.082031 C 303.5625 204.125 299.292969 196.21875 291.96875 192.863281 L 272.921875 184.132812 C 272.875 184.113281 272.828125 184.09375 272.78125 184.074219 L 187.46875 144.960938 L 145.410156 164.242188 C 145.402344 164.246094 145.394531 164.25 145.382812 164.253906 L 102.019531 184.132812 C 102.007812 184.136719 102 184.140625 101.988281 184.148438 L 82.972656 192.863281 C 75.652344 196.21875 71.382812 204.125 72.582031 212.082031 C 76.347656 236.96875 85.699219 260.9375 99.632812 281.871094 Z M 184.082031 158.636719 C 184.082031 156.765625 185.597656 155.25 187.46875 155.25 C 189.34375 155.25 190.855469 156.765625 190.855469 158.636719 L 190.855469 256.09375 C 190.855469 257.964844 189.34375 259.480469 187.46875 259.480469 C 185.597656 259.480469 184.082031 257.964844 184.082031 256.09375 Z M 184.082031 158.636719 " fill-opacity="1" fill-rule="nonzero"/><g clip-path="url(#b18c13c535)"><path fill="#ffffff" d="M 187.5 295.410156 C 171.746094 295.410156 156.039062 289.5 144.015625 277.839844 C 143.632812 278.210938 143.25 278.574219 142.859375 278.929688 C 117.519531 302.261719 77.925781 300.621094 54.609375 275.285156 C 53.339844 273.910156 53.425781 271.765625 54.804688 270.496094 C 56.183594 269.238281 58.328125 269.332031 59.589844 270.695312 C 69.664062 281.636719 83.398438 288 98.257812 288.613281 C 113.136719 289.238281 127.332031 284.015625 138.269531 273.949219 C 139.398438 272.910156 140.480469 271.824219 141.519531 270.695312 C 142.796875 269.304688 145.214844 269.296875 146.503906 270.695312 C 167.300781 293.285156 202.597656 294.753906 225.183594 273.949219 C 226.3125 272.910156 227.398438 271.824219 228.433594 270.695312 C 229.710938 269.304688 232.128906 269.296875 233.421875 270.695312 C 254.210938 293.285156 289.507812 294.753906 312.097656 273.949219 C 313.226562 272.910156 314.3125 271.824219 315.351562 270.695312 C 316.621094 269.332031 318.769531 269.238281 320.136719 270.496094 C 321.511719 271.765625 321.605469 273.910156 320.339844 275.285156 C 319.175781 276.546875 317.957031 277.765625 316.691406 278.929688 C 292.242188 301.457031 254.503906 300.714844 230.929688 277.839844 C 230.550781 278.210938 230.164062 278.574219 229.773438 278.929688 C 217.792969 289.964844 202.625 295.410156 187.5 295.410156 Z M 187.5 295.410156 " fill-opacity="1" fill-rule="nonzero"/></g></svg>